<svg xmlns="http://www.w3.org/2000/svg" width="187.5" viewBox="0 0 187.5 187.5" height="187.5" version="1.0"><defs><clipPath id="a"><path d="M 67.566406 38.3125 L 119.300781 38.3125 L 119.300781 97.5625 L 67.566406 97.5625 Z M 67.566406 38.3125"/></clipPath></defs><g fill="#445D7B"><g><g><path d="M 9.574219 -2.449219 L 4.753906 -2.449219 L 9.863281 -12.238281 L 0.71875 -12.238281 L 0.71875 -9.792969 L 5.472656 -9.792969 L 0.359375 0 L 9.574219 0 Z M 9.574219 -2.449219" transform="translate(56.644 118.075)"/></g></g></g><g fill="#445D7B"><g><g><path d="M 10.53125 -6.136719 C 10.53125 -4.246094 8.820312 -2.519531 6.929688 -2.519531 C 5.039062 -2.519531 3.328125 -4.246094 3.328125 -6.136719 C 3.328125 -8.027344 5.039062 -9.738281 6.929688 -9.738281 C 8.820312 -9.738281 10.53125 -8.027344 10.53125 -6.136719 Z M 13.230469 -6.121094 C 13.230469 -9.503906 10.3125 -12.421875 6.929688 -12.421875 C 3.546875 -12.421875 0.628906 -9.503906 0.628906 -6.121094 C 0.628906 -2.734375 3.546875 0.179688 6.929688 0.179688 C 10.3125 0.179688 13.230469 -2.734375 13.230469 -6.121094 Z M 13.230469 -6.121094" transform="translate(66.868 118.075)"/></g></g></g><g fill="#445D7B"><g><g><path d="M 10.53125 -6.136719 C 10.53125 -4.246094 8.820312 -2.519531 6.929688 -2.519531 C 5.039062 -2.519531 3.328125 -4.246094 3.328125 -6.136719 C 3.328125 -8.027344 5.039062 -9.738281 6.929688 -9.738281 C 8.820312 -9.738281 10.53125 -8.027344 10.53125 -6.136719 Z M 13.230469 -6.121094 C 13.230469 -9.503906 10.3125 -12.421875 6.929688 -12.421875 C 3.546875 -12.421875 0.628906 -9.503906 0.628906 -6.121094 C 0.628906 -2.734375 3.546875 0.179688 6.929688 0.179688 C 10.3125 0.179688 13.230469 -2.734375 13.230469 -6.121094 Z M 13.230469 -6.121094" transform="translate(80.728 118.075)"/></g></g></g><g fill="#445D7B"><g><g><path d="M 7.738281 -4.679688 L 4.644531 -4.679688 L 6.191406 -9.035156 Z M 12.3125 0 L 7.34375 -12.238281 L 5.058594 -12.238281 L 0.0898438 0 L 2.988281 0 L 3.871094 -2.464844 L 8.53125 -2.464844 L 9.414062 0 Z M 12.3125 0" transform="translate(99.088 118.075)"/></g></g></g><g fill="#445D7B"><g><g><path d="M 3.78125 -4.375 L 5.671875 -4.375 C 7.648438 -4.375 9.414062 -5.832031 9.414062 -8.316406 C 9.414062 -10.636719 7.648438 -12.238281 5.671875 -12.238281 L 1.078125 -12.238281 L 1.078125 0 L 3.78125 0 Z M 5.21875 -10.117188 C 6.011719 -10.117188 6.839844 -9.433594 6.839844 -8.316406 C 6.839844 -7.144531 6.011719 -6.496094 5.21875 -6.496094 L 3.78125 -6.496094 L 3.78125 -10.117188 Z M 5.21875 -10.117188" transform="translate(111.49 118.075)"/></g></g></g><g fill="#445D7B"><g><g><path d="M 3.78125 -4.375 L 5.671875 -4.375 C 7.648438 -4.375 9.414062 -5.832031 9.414062 -8.316406 C 9.414062 -10.636719 7.648438 -12.238281 5.671875 -12.238281 L 1.078125 -12.238281 L 1.078125 0 L 3.78125 0 Z M 5.21875 -10.117188 C 6.011719 -10.117188 6.839844 -9.433594 6.839844 -8.316406 C 6.839844 -7.144531 6.011719 -6.496094 5.21875 -6.496094 L 3.78125 -6.496094 L 3.78125 -10.117188 Z M 5.21875 -10.117188" transform="translate(121.174 118.075)"/></g></g></g><g clip-path="url(#a)"><path fill="#004AAD" d="M 67.566406 53.132812 L 93.441406 38.328125 L 119.316406 53.132812 L 119.316406 82.742188 L 93.441406 97.546875 L 67.566406 82.742188 Z M 67.566406 53.132812"/></g><path fill="#FFF" d="M 93.539062 46.230469 C 93.382812 46.230469 93.210938 46.269531 93.066406 46.347656 L 86.007812 50.277344 L 93.539062 54.382812 L 101.097656 50.304688 L 94.011719 46.347656 C 93.871094 46.269531 93.695312 46.230469 93.539062 46.230469 Z M 85.035156 51.898438 L 85.035156 54.585938 L 76.058594 59.578125 C 75.738281 59.761719 75.582031 60.039062 75.585938 60.40625 L 75.585938 68.554688 L 72.71875 70.148438 L 80.308594 74.226562 L 87.8125 70.121094 L 80.78125 66.195312 C 80.496094 66.035156 80.125 66.035156 79.835938 66.195312 L 77.472656 67.492188 L 77.472656 60.964844 L 85.035156 56.773438 L 85.035156 59.785156 C 85.035156 60.128906 85.207031 60.445312 85.507812 60.613281 L 92.59375 64.539062 L 92.59375 56.035156 Z M 102.042969 51.960938 L 94.484375 56.035156 L 94.484375 64.539062 L 101.570312 60.613281 C 101.871094 60.445312 102.042969 60.128906 102.042969 59.785156 L 102.042969 56.773438 L 109.605469 60.964844 L 109.605469 67.523438 L 107.242188 66.195312 C 106.957031 66.035156 106.582031 66.035156 106.296875 66.195312 L 99.238281 70.121094 L 106.769531 74.226562 L 114.269531 70.121094 L 111.496094 68.554688 L 111.496094 60.40625 C 111.496094 60.0625 111.324219 59.746094 111.023438 59.578125 L 102.042969 54.585938 Z M 88.8125 71.714844 L 81.253906 75.878906 L 81.253906 84.382812 L 82.496094 83.703125 L 93.066406 89.582031 C 93.382812 89.761719 93.695312 89.761719 94.011719 89.582031 L 104.585938 83.703125 L 105.824219 84.382812 L 105.824219 75.878906 L 98.265625 71.746094 L 98.265625 79.628906 C 98.265625 79.972656 98.4375 80.289062 98.738281 80.457031 L 102.636719 82.613281 L 93.539062 87.664062 L 84.445312 82.613281 L 88.34375 80.457031 C 88.640625 80.289062 88.8125 79.972656 88.8125 79.628906 Z M 115.273438 71.714844 L 107.714844 75.878906 L 107.714844 84.382812 L 114.800781 80.457031 C 115.101562 80.289062 115.273438 79.972656 115.273438 79.628906 Z M 71.804688 71.804688 L 71.804688 79.628906 C 71.804688 79.972656 71.976562 80.289062 72.277344 80.457031 L 79.363281 84.382812 L 79.363281 75.878906 Z M 71.804688 71.804688"/></svg>